<?xml version="1.0" standalone="no"?>
<!DOCTYPE svg PUBLIC "-//W3C//DTD SVG 20010904//EN"
 "http://www.w3.org/TR/2001/REC-SVG-20010904/DTD/svg10.dtd">
<svg version="1.0" xmlns="http://www.w3.org/2000/svg"
 width="844.000000pt" height="844.000000pt" viewBox="0 0 844.000000 844.000000"
 preserveAspectRatio="xMidYMid meet">

<g transform="translate(0.000000,844.000000) scale(0.100000,-0.100000)"
fill="#000000" stroke="none">
<path d="M4005 8434 c-192 -14 -317 -28 -430 -45 -1357 -212 -2520 -1062
-3131 -2289 -230 -462 -373 -961 -425 -1485 -17 -167 -17 -623 0 -790 97 -968
502 -1847 1169 -2536 704 -728 1618 -1167 2642 -1271 161 -16 619 -16 780 0
785 80 1515 359 2125 815 340 254 675 596 918 935 374 523 621 1119 727 1755
43 260 54 406 54 697 0 291 -11 437 -54 697 -149 889 -574 1699 -1223 2329
-680 661 -1547 1067 -2495 1170 -133 14 -555 26 -657 18z m-408 -2221 c16 -21
334 -496 707 -1055 373 -560 682 -1018 687 -1018 5 0 10 419 11 1048 l3 1047
695 3 c382 1 705 0 718 -3 l22 -5 0 -1985 c0 -1758 -2 -1985 -15 -1985 -8 0
-15 -4 -15 -10 0 -16 -1407 -14 -1426 3 -19 15 -145 192 -716 1002 -672 953
-702 995 -710 995 -4 0 -8 -444 -8 -987 -1 -806 -3 -991 -14 -1005 -12 -17
-59 -18 -733 -18 l-720 0 -11 23 c-10 17 -12 489 -10 1997 l3 1975 50 6 c28 3
366 7 752 7 l701 2 29 -37z"/>
</g>
</svg>
